HIERARCHY
ROOT Hips
{
	OFFSET 0.00000 0.00000 0.00000
	CHANNELS 6 Xposition Yposition Zposition Zrotation Yrotation Xrotation 
	JOINT LHipJoint
	{
		OFFSET 0 0 0
		CHANNELS 3 Zrotation Yrotation Xrotation
		JOINT LeftUpLeg
		{
			OFFSET 1.53139 -1.83434 0.76626
			CHANNELS 3 Zrotation Yrotation Xrotation
			JOINT LeftLeg
			{
				OFFSET 2.56112 -7.03663 0.00000
				CHANNELS 3 Zrotation Yrotation Xrotation
				JOINT LeftFoot
				{
					OFFSET 2.59983 -7.14299 0.00000
					CHANNELS 3 Zrotation Yrotation Xrotation
					JOINT LeftToeBase
					{
						OFFSET 0.13742 -0.37757 2.00054
						CHANNELS 3 Zrotation Yrotation Xrotation
						End Site
						{
							OFFSET 0.00000 -0.00000 1.02897
						}
					}
				}
			}
		}
	}
	JOINT RHipJoint
	{
		OFFSET 0 0 0
		CHANNELS 3 Zrotation Yrotation Xrotation
		JOINT RightUpLeg
		{
			OFFSET -1.40122 -1.83435 0.76627
			CHANNELS 3 Zrotation Yrotation Xrotation
			JOINT RightLeg
			{
				OFFSET -2.54052 -6.98003 0.00000
				CHANNELS 3 Zrotation Yrotation Xrotation
				JOINT RightFoot
				{
					OFFSET -2.63179 -7.23079 0.00000
					CHANNELS 3 Zrotation Yrotation Xrotation
					JOINT RightToeBase
					{
						OFFSET -0.24131 -0.66299 2.03908
						CHANNELS 3 Zrotation Yrotation Xrotation
						End Site
						{
							OFFSET -0.00000 -0.00000 1.07391
						}
					}
				}
			}
		}
	}
	JOINT LowerBack
	{
		OFFSET 0 0 0
		CHANNELS 3 Zrotation Yrotation Xrotation
		JOINT Spine
		{
			OFFSET 0.01174 2.10302 -0.29778
			CHANNELS 3 Zrotation Yrotation Xrotation
			JOINT Spine1
			{
				OFFSET 0.00772 2.13227 -0.01247
				CHANNELS 3 Zrotation Yrotation Xrotation
				JOINT Neck
				{
					OFFSET 0 0 0
					CHANNELS 3 Zrotation Yrotation Xrotation
					JOINT Neck1
					{
						OFFSET -0.09219 1.60848 0.31481
						CHANNELS 3 Zrotation Yrotation Xrotation
						JOINT Head
						{
							OFFSET 0.13974 1.65456 -0.31134
							CHANNELS 3 Zrotation Yrotation Xrotation
							End Site
							{
								OFFSET 0.04742 1.69515 -0.14578
							}
						}
					}
				}
				JOINT LeftShoulder
				{
					OFFSET 0 0 0
					CHANNELS 3 Zrotation Yrotation Xrotation
					JOINT LeftArm
					{
						OFFSET 3.24909 1.02882 -0.23993
						CHANNELS 3 Zrotation Yrotation Xrotation
						JOINT LeftForeArm
						{
							OFFSET 5.32955 -0.00000 -0.00000
							CHANNELS 3 Zrotation Yrotation Xrotation
							JOINT LeftHand
							{
								OFFSET 3.69232 -0.00000 -0.00000
								CHANNELS 3 Zrotation Yrotation Xrotation
								JOINT LeftFingerBase
								{
									OFFSET 0 0 0
									CHANNELS 3 Zrotation Yrotation Xrotation
									JOINT LeftHandIndex1
									{
										OFFSET 0.53660 -0.00000 -0.00000
										CHANNELS 3 Zrotation Yrotation Xrotation
										End Site
										{
											OFFSET 0.43262 -0.00000 -0.00000
										}
									}
								}
								JOINT LThumb
								{
									OFFSET 0 0 0
									CHANNELS 3 Zrotation Yrotation Xrotation
									End Site
									{
										OFFSET 0.43922 -0.00000 0.43922
									}
								}
							}
						}
					}
				}
				JOINT RightShoulder
				{
					OFFSET 0 0 0
					CHANNELS 3 Zrotation Yrotation Xrotation
					JOINT RightArm
					{
						OFFSET -3.21387 0.93002 -0.34594
						CHANNELS 3 Zrotation Yrotation Xrotation
						JOINT RightForeArm
						{
							OFFSET -5.23431 -0.00000 0.00000
							CHANNELS 3 Zrotation Yrotation Xrotation
							JOINT RightHand
							{
								OFFSET -3.55301 -0.00000 -0.00000
								CHANNELS 3 Zrotation Yrotation Xrotation
								JOINT RightFingerBase
								{
									OFFSET 0 0 0
									CHANNELS 3 Zrotation Yrotation Xrotation
									JOINT RightHandIndex1
									{
										OFFSET -0.77252 -0.00000 -0.00000
										CHANNELS 3 Zrotation Yrotation Xrotation
										End Site
										{
											OFFSET -0.62283 -0.00000 -0.00000
										}
									}
								}
								JOINT RThumb
								{
									OFFSET 0 0 0
									CHANNELS 3 Zrotation Yrotation Xrotation
									End Site
									{
										OFFSET -0.63234 -0.00000 0.63234
									}
								}
							}
						}
					}
				}
			}
		}
	}
}
MOTION
Frames: 9
Frame Time: .0083333
-5.9009 17.9598 9.4251 -10.7778 60.5835 -10.9289 0.0000 0.0000 0.0000 -14.5230 -8.4900 -21.4321 2.6294 10.0695 29.2022 0.0911 -0.1974 -5.6330 0.0133 -0.7441 -2.0448 0.0000 0.0000 0.0000 25.9802 -5.1223 2.6352 -1.0318 -6.4609 18.1277 -0.5678 1.5319 -13.7900 -0.0243 1.0068 -2.7677 2.9159 2.7638 11.8439 1.0147 4.1470 1.0113 -1.2489 1.9975 -5.4411 -12.4089 -5.6513 -20.6103 7.8473 -5.9996 29.4818 4.2275 -2.8133 14.2031 0.0000 0.0000 0.0000 -87.2542 6.7073 10.8587 16.2871 -25.9083 -3.7705 -0.0000 -0.0000 6.3450 21.4582 26.5038 9.9490 -7.1250 0.0000 -0.0000 -9.6007 57.9043 -3.0507 0.0000 0.0000 0.0000 84.1684 3.0222 14.0023 -15.2125 24.4413 -3.3134 0.0000 0.0000 8.1944 -15.7024 7.7810 -2.1797 7.1250 -0.0000 -0.0000 8.0834 -21.9294 4.5238
-5.7970 17.9539 9.4803 -10.7711 60.9140 -10.7064 0.0000 0.0000 0.0000 -14.5497 -8.7501 -21.2741 2.2004 9.2717 26.6488 0.0818 0.7649 -5.7384 0.0031 -0.3570 -0.9810 0.0000 0.0000 0.0000 25.9907 -4.9323 3.0815 -0.9976 -6.3563 17.8217 -0.5870 1.0969 -14.1383 -0.0424 1.3293 -3.6552 2.9035 2.8011 11.6464 0.9704 4.1845 0.9773 -1.2836 2.0168 -5.3629 -12.3922 -5.6554 -20.7512 7.8728 -6.0025 29.5138 4.2353 -2.8066 14.2482 0.0000 -0.0000 0.0000 -87.2797 6.8822 11.2544 16.3443 -25.9852 -3.7955 -0.0000 -0.0000 5.3761 22.0116 26.4451 10.2059 -7.1250 0.0000 -0.0000 -8.9731 57.9676 -2.8627 0.0000 -0.0000 0.0000 83.9381 3.2455 14.2674 -15.4166 24.7233 -3.3983 0.0000 0.0000 7.7116 -16.0405 7.9395 -2.2742 7.1250 -0.0000 -0.0000 7.8337 -21.7515 4.4134
-5.6923 17.9454 9.5309 -11.0186 61.2401 -10.8124 0.0000 0.0000 0.0000 -14.4544 -8.9920 -21.0003 1.8139 8.4673 24.1426 0.0671 1.6347 -5.7831 0.0003 0.1150 0.3159 0.0000 0.0000 0.0000 26.0789 -5.0224 3.5254 -0.9660 -6.2576 17.5338 -0.6053 0.8310 -14.4362 -0.0937 1.9739 -5.4335 3.0823 2.7645 11.6011 0.9225 4.1551 0.9386 -1.4272 1.9971 -5.3633 -12.2995 -5.5849 -20.7431 7.9439 -5.9553 29.4317 4.2553 -2.7649 14.2020 -0.0000 0.0000 0.0000 -87.2789 7.1077 11.2906 16.3847 -26.0395 -3.8133 -0.0000 -0.0000 5.1138 21.8483 26.5549 10.1621 -7.1250 0.0000 -0.0000 -9.2040 58.0430 -2.9540 -0.0000 0.0000 0.0000 83.8282 3.4661 14.4308 -15.5980 24.9726 -3.4745 0.0000 0.0000 7.3607 -16.2415 7.9331 -2.3024 7.1250 -0.0000 -0.0000 7.6883 -21.7488 4.3305
-5.5849 17.9473 9.5759 -10.9861 61.5051 -10.6050 0.0000 0.0000 0.0000 -14.4989 -9.2365 -20.8010 1.4780 7.6816 21.7510 0.0505 2.5811 -5.9882 0.0028 0.3401 0.9344 0.0000 0.0000 0.0000 25.9643 -5.3973 3.8308 -0.9278 -6.1363 17.1804 -0.5860 0.7270 -14.2309 -0.0767 1.7865 -4.9161 3.2119 2.7799 11.5062 0.8026 4.1813 0.8871 -1.6245 2.0051 -5.3450 -12.1728 -5.5593 -20.7668 8.0250 -5.9868 29.3527 4.2584 -2.7515 14.1735 0.0000 -0.0000 0.0000 -87.2931 7.2926 11.1028 16.3923 -26.0497 -3.8166 -0.0000 -0.0000 5.2639 21.4354 26.4446 9.9174 -7.1250 0.0000 -0.0000 -9.5958 57.8390 -3.0340 0.0000 -0.0000 0.0000 83.8527 3.7189 14.2647 -15.7778 25.2184 -3.5507 0.0000 0.0000 7.2877 -16.0701 7.7929 -2.2369 7.1250 -0.0000 -0.0000 7.8164 -21.9009 4.3767
-5.4740 17.9492 9.6202 -11.1437 61.7091 -10.4692 0.0000 0.0000 0.0000 -14.4129 -9.5644 -20.6868 1.1892 6.9201 19.4790 0.0315 3.5343 -6.3185 0.0056 0.4812 1.3223 0.0000 0.0000 0.0000 25.9539 -5.7183 4.0479 -0.8911 -6.0168 16.8331 -0.5655 0.6397 -14.0005 -0.0859 1.8899 -5.2016 3.3640 2.8058 11.3049 0.7754 4.2262 0.7993 -1.7351 2.0228 -5.3101 -12.2124 -5.5542 -20.8782 8.0843 -5.9708 29.3667 4.2931 -2.7390 14.2056 -0.0000 -0.0000 0.0000 -87.4855 7.4532 10.5998 16.3578 -26.0034 -3.8015 -0.0000 -0.0000 5.5896 20.6267 26.3397 9.4814 -7.1250 0.0000 -0.0000 -10.4119 57.5549 -3.2241 -0.0000 -0.0000 0.0000 83.7234 3.9272 14.3378 -15.9547 25.4591 -3.6265 0.0000 0.0000 6.9373 -15.9841 7.7998 -2.2262 7.1250 -0.0000 -0.0000 7.8786 -21.8977 4.4127
-5.3605 17.9406 9.6666 -11.5684 61.9406 -10.5831 0.0000 0.0000 0.0000 -14.1871 -9.8513 -20.5124 0.9300 6.1432 17.2006 0.0108 4.2205 -6.4321 0.0257 1.0345 2.8437 0.0000 0.0000 0.0000 26.1254 -5.7053 4.3382 -0.8696 -5.9459 16.6276 -0.5836 0.4514 -14.2855 -0.1705 2.6601 -7.3339 3.5775 2.8138 11.0711 0.8229 4.2575 0.7320 -1.7972 2.0347 -5.2373 -12.2332 -5.5518 -20.9779 8.0380 -5.9308 29.3552 4.2838 -2.7287 14.2160 0.0000 0.0000 0.0000 -87.7307 7.5587 10.2282 16.3024 -25.9289 -3.7772 -0.0000 -0.0000 5.6511 18.5007 25.9768 8.3380 -7.1250 0.0000 -0.0000 -12.4750 56.7357 -3.6274 0.0000 0.0000 0.0000 83.6103 4.1063 14.2691 -16.1814 25.7661 -3.7245 0.0000 0.0000 6.5452 -16.0653 7.8325 -2.2474 7.1250 -0.0000 -0.0000 7.8188 -21.8603 4.3853
-5.2470 17.9316 9.7150 -11.5320 62.1787 -10.4039 0.0000 0.0000 0.0000 -14.1810 -10.1121 -20.2923 0.7312 5.4635 15.2354 -0.0033 4.6641 -6.5373 0.0358 1.2210 3.3570 0.0000 0.0000 0.0000 26.0643 -5.6517 4.8938 -0.8290 -5.8088 16.2308 -0.5973 0.2046 -14.5352 -0.2246 3.0505 -8.4194 3.5379 2.8280 10.9376 0.8180 4.2651 0.7158 -1.7738 2.0404 -5.1819 -12.1888 -5.5253 -21.0723 7.9700 -5.8728 29.2933 4.2556 -2.7062 14.1970 -0.0000 0.0000 0.0000 -87.9201 7.6501 10.0323 16.2422 -25.8479 -3.7509 -0.0000 -0.0000 5.5764 17.1494 25.8443 7.6614 -7.1250 0.0000 -0.0000 -13.8111 56.3235 -3.8871 -0.0000 0.0000 0.0000 83.4914 4.2713 14.3462 -16.4492 26.1259 -3.8416 0.0000 0.0000 6.0774 -16.1765 7.8771 -2.2766 7.1250 -0.0000 -0.0000 7.7369 -21.8095 4.3476
-5.1311 17.9400 9.7655 -11.4605 62.4012 -10.2770 0.0000 0.0000 0.0000 -14.1642 -10.4657 -19.9271 0.5698 4.8344 13.4369 -0.0192 5.2040 -6.7731 0.0473 1.4038 3.8606 0.0000 0.0000 0.0000 25.9668 -5.9774 5.4217 -0.7923 -5.6819 15.8643 -0.5911 0.0342 -14.5176 -0.2934 3.4830 -9.6265 3.4300 2.8183 10.8649 0.8089 4.2353 0.7043 -1.7150 2.0283 -5.1619 -12.1429 -5.4808 -21.1557 7.9436 -5.8052 29.2839 4.2488 -2.6740 14.1988 -0.0000 0.0000 0.0000 -88.1081 7.7769 9.6011 16.1699 -25.7505 -3.7195 -0.0000 -0.0000 5.7674 19.0569 26.2720 8.6933 -7.1250 0.0000 -0.0000 -12.0442 57.1477 -3.6200 -0.0000 0.0000 0.0000 83.3674 4.4495 14.6085 -16.6549 26.4006 -3.9327 0.0000 0.0000 5.6123 -16.4628 7.8197 -2.3024 7.1250 -0.0000 -0.0000 7.5308 -21.8556 4.2218
-5.0145 17.9210 9.8113 -11.5867 62.7055 -10.2508 0.0000 0.0000 0.0000 -14.0805 -10.9054 -19.7215 0.4431 4.2712 11.8409 -0.0377 5.7057 -6.9214 0.0623 1.6104 4.4301 0.0000 0.0000 0.0000 25.9499 -5.7816 5.9562 -0.7592 -5.5645 15.5258 -0.5838 -0.1571 -14.4952 -0.1850 2.7700 -7.6390 3.5084 2.7787 10.7386 0.7814 4.1850 0.6914 -1.7729 2.0028 -5.0998 -12.1844 -5.4896 -21.2778 7.9952 -5.8050 29.2317 4.2746 -2.6697 14.2058 0.0000 -0.0000 0.0000 -88.2826 7.7818 9.1119 16.0548 -25.5949 -3.6696 -0.0000 -0.0000 5.9294 20.2921 26.4672 9.3579 -7.1250 0.0000 -0.0000 -10.8343 57.6104 -3.3715 0.0000 -0.0000 0.0000 83.3190 4.7355 14.6303 -16.7996 26.5929 -3.9972 0.0000 0.0000 5.3279 -16.7823 7.7441 -2.3271 7.1250 -0.0000 -0.0000 7.3007 -21.9191 4.0801
